<svg width="101" height="100" viewBox="0 0 101 100" fill="none" xmlns="http://www.w3.org/2000/svg">
<path d="M75.5009 6.69954C83.0424 11.0539 89.3158 17.3023 93.7002 24.8263C98.0847 32.3502 100.428 40.8888 100.498 49.5968C100.569 58.3047 98.3636 66.8801 94.1012 74.4739C89.8389 82.0677 83.6672 88.4166 76.1971 92.8922C68.727 97.3678 60.2176 99.8148 51.5111 99.991C42.8047 100.167 34.2032 98.0665 26.5581 93.8968C18.913 89.7272 12.4895 83.6331 7.92342 76.218C3.35735 68.8028 0.80705 60.3238 0.525001 51.6201L0.5 50.0001L0.525001 48.3801C0.80502 39.7449 3.31777 31.3297 7.81829 23.9547C12.3188 16.5798 18.6535 10.4969 26.2048 6.29895C33.7561 2.10105 42.2662 -0.0685548 50.9057 0.00165125C59.5451 0.0718573 68.0189 2.37948 75.5009 6.69954ZM43.0555 35.6999C42.0079 35.0763 40.7685 34.8569 39.5705 35.083C38.3725 35.3092 37.2984 35.9652 36.5502 36.9278C35.802 37.8904 35.4313 39.0932 35.5077 40.31C35.5842 41.5268 36.1026 42.6737 36.9655 43.535L43.4255 50.0001L36.9655 56.4652L36.5504 56.9352C35.7734 57.9401 35.408 59.2032 35.5284 60.4678C35.6489 61.7325 36.2462 62.9038 37.1991 63.744C38.1519 64.5842 39.3888 65.0302 40.6586 64.9914C41.9283 64.9526 43.1357 64.432 44.0355 63.5352L50.5006 57.0752L56.9657 63.5352L57.4357 63.9502C58.4407 64.7273 59.7037 65.0927 60.9684 64.9723C62.233 64.8518 63.4044 64.2545 64.2445 63.3016C65.0847 62.3488 65.5307 61.1119 65.4919 59.8421C65.4532 58.5724 64.9325 57.365 64.0358 56.4652L57.5757 50.0001L64.0358 43.535L64.4508 43.065C65.2279 42.06 65.5933 40.797 65.4728 39.5323C65.3523 38.2677 64.755 37.0963 63.8022 36.2562C62.8493 35.416 61.6124 34.97 60.3427 35.0088C59.0729 35.0475 57.8655 35.5682 56.9657 36.4649L50.5006 42.925L44.0355 36.4649L43.5655 36.0499L43.0555 35.6999Z" fill="#F04438"/>
</svg>
